<?xml version="1.0" ?><svg enable-background="new 0 0 32 32" id="style_2_copy" version="1.1" viewBox="0 0 32 32" xml:space="preserve" xmlns="http://www.w3.org/2000/svg" xmlns:xlink="http://www.w3.org/1999/xlink"><g><g><g opacity="0.4"><path d="M16,31.75C7.315,31.75,0.25,24.685,0.25,16S7.315,0.25,16,0.25S31.75,7.315,31.75,16     S24.685,31.75,16,31.75z" fill="#E5E5E5"/><path d="M16,0.5c8.547,0,15.5,6.953,15.5,15.5c0,8.547-6.953,15.5-15.5,15.5S0.5,24.547,0.5,16     C0.5,7.453,7.453,0.5,16,0.5 M16,0C7.178,0,0,7.178,0,16c0,8.822,7.178,16,16,16s16-7.178,16-16C32,7.178,24.822,0,16,0L16,0z" fill="#CCCCCC"/></g><g><path d="M16,31.75C7.315,31.75,0.25,24.685,0.25,16S7.315,0.25,16,0.25S31.75,7.315,31.75,16     S24.685,31.75,16,31.75z" fill="#E5E5E5"/><path d="M16,0.5c8.547,0,15.5,6.953,15.5,15.5c0,8.547-6.953,15.5-15.5,15.5S0.5,24.547,0.5,16     C0.5,7.453,7.453,0.5,16,0.5 M16,0C7.178,0,0,7.178,0,16c0,8.822,7.178,16,16,16s16-7.178,16-16C32,7.178,24.822,0,16,0L16,0z" fill="#CCCCCC"/></g></g><g><path d="M16,30.625C7.936,30.625,1.375,24.064,1.375,16C1.375,7.936,7.936,1.375,16,1.375S30.625,7.936,30.625,16    C30.625,24.064,24.064,30.625,16,30.625z" fill="#FFFFFF"/><path d="M16,30.625C7.936,30.625,1.375,24.064,1.375,16C1.375,7.936,7.936,1.375,16,1.375S30.625,7.936,30.625,16    C30.625,24.064,24.064,30.625,16,30.625z" fill="#FFFFFF"/></g><g><g opacity="0.4"><path d="M16,29.754c-7.584,0-13.754-6.17-13.754-13.754C2.246,8.416,8.416,2.246,16,2.246S29.754,8.416,29.754,16     C29.754,23.584,23.584,29.754,16,29.754z" fill="#FFFFFF"/></g><path d="M16,29.754c-7.584,0-13.754-6.17-13.754-13.754C2.246,8.416,8.416,2.246,16,2.246S29.754,8.416,29.754,16    C29.754,23.584,23.584,29.754,16,29.754z" fill="#FFFFFF"/></g><g><g opacity="0.4"><path d="M16,29.754c-7.584,0-13.754-6.17-13.754-13.754C2.246,8.416,8.416,2.246,16,2.246S29.754,8.416,29.754,16     C29.754,23.584,23.584,29.754,16,29.754z" fill="#FFFFFF"/></g><path d="M16,29.754c-7.584,0-13.754-6.17-13.754-13.754C2.246,8.416,8.416,2.246,16,2.246S29.754,8.416,29.754,16    C29.754,23.584,23.584,29.754,16,29.754z" fill="#333333"/></g><g><g opacity="0.4"><path d="M16,28.577C9.065,28.577,3.423,22.935,3.423,16C3.423,9.065,9.065,3.423,16,3.423S28.577,9.065,28.577,16     C28.577,22.935,22.935,28.577,16,28.577z" fill="#FFFFFF"/></g><path d="M16,28.577C9.065,28.577,3.423,22.935,3.423,16C3.423,9.065,9.065,3.423,16,3.423S28.577,9.065,28.577,16    C28.577,22.935,22.935,28.577,16,28.577z" fill="#FFFFFF"/></g></g><g><path d="M9.919,12.125c-0.61,0-1.106,0.495-1.106,1.106v4.422c0,0.61,0.495,1.106,1.106,1.106   c0.61,0,1.106-0.495,1.106-1.106V13.23C11.025,12.619,10.53,12.125,9.919,12.125z" fill="#333333"/><path d="M22.081,12.125c-0.61,0-1.106,0.495-1.106,1.106v4.422c0,0.61,0.495,1.106,1.106,1.106   c0.61,0,1.106-0.495,1.106-1.106V13.23C23.186,12.619,22.691,12.125,22.081,12.125z" fill="#333333"/><path d="M11.578,20.969h1.106v2.764c0,0.61,0.495,1.106,1.106,1.106c0.61,0,1.106-0.495,1.106-1.106v-2.764h2.211   v2.764c0,0.61,0.495,1.106,1.106,1.106c0.61,0,1.106-0.495,1.106-1.106v-2.764h1.106v-8.292h-8.844V20.969z" fill="#333333"/><path d="M18.611,8.56l0.568-0.983c0.077-0.133,0.032-0.301-0.102-0.378c-0.132-0.077-0.301-0.032-0.378,0.102   l-0.553,0.959C17.51,7.905,16.779,7.702,16,7.702c-0.779,0-1.51,0.203-2.146,0.557L13.3,7.3c-0.077-0.132-0.245-0.177-0.378-0.101   c-0.132,0.076-0.177,0.245-0.101,0.378l0.568,0.984c-1.096,0.805-1.811,2.099-1.811,3.564h8.844   C20.422,10.66,19.707,9.365,18.611,8.56z M14.342,10.466c-0.306,0-0.553-0.247-0.553-0.553s0.247-0.553,0.553-0.553   c0.306,0,0.553,0.247,0.553,0.553S14.647,10.466,14.342,10.466z M17.658,10.466c-0.306,0-0.553-0.247-0.553-0.553   s0.247-0.553,0.553-0.553c0.306,0,0.553,0.247,0.553,0.553S17.964,10.466,17.658,10.466z" fill="#333333"/></g></svg>