<?xml version="1.0" ?><svg enable-background="new 0 0 32 32" id="style_2_copy" version="1.1" viewBox="0 0 32 32" xml:space="preserve" xmlns="http://www.w3.org/2000/svg" xmlns:xlink="http://www.w3.org/1999/xlink"><g><g><g opacity="0.4"><path d="M16,31.75C7.315,31.75,0.25,24.685,0.25,16S7.315,0.25,16,0.25S31.75,7.315,31.75,16     S24.685,31.75,16,31.75z" fill="#E5E5E5"/><path d="M16,0.5c8.547,0,15.5,6.953,15.5,15.5c0,8.547-6.953,15.5-15.5,15.5S0.5,24.547,0.5,16     C0.5,7.453,7.453,0.5,16,0.5 M16,0C7.178,0,0,7.178,0,16c0,8.822,7.178,16,16,16s16-7.178,16-16C32,7.178,24.822,0,16,0L16,0z" fill="#CCCCCC"/></g><g><path d="M16,31.75C7.315,31.75,0.25,24.685,0.25,16S7.315,0.25,16,0.25S31.75,7.315,31.75,16     S24.685,31.75,16,31.75z" fill="#E5E5E5"/><path d="M16,0.5c8.547,0,15.5,6.953,15.5,15.5c0,8.547-6.953,15.5-15.5,15.5S0.5,24.547,0.5,16     C0.5,7.453,7.453,0.5,16,0.5 M16,0C7.178,0,0,7.178,0,16c0,8.822,7.178,16,16,16s16-7.178,16-16C32,7.178,24.822,0,16,0L16,0z" fill="#CCCCCC"/></g></g><g><path d="M16,30.625C7.936,30.625,1.375,24.064,1.375,16C1.375,7.936,7.936,1.375,16,1.375S30.625,7.936,30.625,16    C30.625,24.064,24.064,30.625,16,30.625z" fill="#FFFFFF"/><path d="M16,30.625C7.936,30.625,1.375,24.064,1.375,16C1.375,7.936,7.936,1.375,16,1.375S30.625,7.936,30.625,16    C30.625,24.064,24.064,30.625,16,30.625z" fill="#FFFFFF"/></g><g><g opacity="0.4"><path d="M16,29.754c-7.584,0-13.754-6.17-13.754-13.754C2.246,8.416,8.416,2.246,16,2.246S29.754,8.416,29.754,16     C29.754,23.584,23.584,29.754,16,29.754z" fill="#FFFFFF"/></g><path d="M16,29.754c-7.584,0-13.754-6.17-13.754-13.754C2.246,8.416,8.416,2.246,16,2.246S29.754,8.416,29.754,16    C29.754,23.584,23.584,29.754,16,29.754z" fill="#FFFFFF"/></g><g><g opacity="0.4"><path d="M16,29.754c-7.584,0-13.754-6.17-13.754-13.754C2.246,8.416,8.416,2.246,16,2.246S29.754,8.416,29.754,16     C29.754,23.584,23.584,29.754,16,29.754z" fill="#FFFFFF"/></g><path d="M16,29.754c-7.584,0-13.754-6.17-13.754-13.754C2.246,8.416,8.416,2.246,16,2.246S29.754,8.416,29.754,16    C29.754,23.584,23.584,29.754,16,29.754z" fill="#333333"/></g><g><g opacity="0.4"><path d="M16,28.577C9.065,28.577,3.423,22.935,3.423,16C3.423,9.065,9.065,3.423,16,3.423S28.577,9.065,28.577,16     C28.577,22.935,22.935,28.577,16,28.577z" fill="#FFFFFF"/></g><path d="M16,28.577C9.065,28.577,3.423,22.935,3.423,16C3.423,9.065,9.065,3.423,16,3.423S28.577,9.065,28.577,16    C28.577,22.935,22.935,28.577,16,28.577z" fill="#FFFFFF"/></g></g><g><path d="M15.338,15.833c-0.421-0.389-0.888-0.935-1.091-1.419c-0.031-0.062-0.093-0.218,0-0.343   c0.187-0.249,0.218-0.265,0.421-0.499c0.14-0.172,0.249-0.327,0.203-0.468l-0.701-1.824c-0.063-0.125-0.249-0.14-0.468-0.156   c-0.187,0-0.389,0-0.53,0.031c-0.312,0.109-0.95,0.951-1.028,1.559c-0.172,1.325,1.028,3.087,2.228,4.178   c1.2,1.107,3.054,2.152,4.363,1.855c0.608-0.14,1.387-0.842,1.449-1.169c0.031-0.14,0.016-0.343-0.016-0.53   c-0.016-0.218-0.062-0.374-0.187-0.436l-1.589-0.733c-0.141-0.078-0.281-0.016-0.421,0.156c-0.171,0.234-0.25,0.327-0.452,0.577   c-0.109,0.14-0.187,0.234-0.311,0.249c-0.141,0.031-0.327-0.047-0.359-0.047C16.35,16.644,15.774,16.223,15.338,15.833   L15.338,15.833z M10.102,21.431l0.904-2.292C10.008,17.985,9.4,16.472,9.4,14.82c0-3.648,2.961-6.595,6.608-6.595   c3.646,0,6.591,2.947,6.591,6.595c0,3.648-2.945,6.611-6.591,6.611c-1.465,0-2.805-0.468-3.896-1.278L10.102,21.431z M8.995,19.185   l-1.247,4.989l4.457-2.027c1.138,0.592,2.431,0.936,3.803,0.936c4.55,0,8.243-3.695,8.243-8.264c0-4.552-3.694-8.248-8.243-8.248   c-4.566,0-8.259,3.695-8.259,8.248C7.749,16.426,8.216,17.923,8.995,19.185L8.995,19.185z" fill="#333333"/></g></svg>