<?xml version="1.0" ?><svg enable-background="new 0 0 32 32" id="style_2_copy" version="1.1" viewBox="0 0 32 32" xml:space="preserve" xmlns="http://www.w3.org/2000/svg" xmlns:xlink="http://www.w3.org/1999/xlink"><g><g><g opacity="0.4"><path d="M15.979,31.75c-8.685,0-15.75-7.065-15.75-15.75S7.295,0.25,15.979,0.25S31.729,7.315,31.729,16     S24.664,31.75,15.979,31.75z" fill="#E5E5E5"/><path d="M15.979,0.5c8.547,0,15.5,6.953,15.5,15.5c0,8.547-6.953,15.5-15.5,15.5c-8.547,0-15.5-6.953-15.5-15.5     C0.479,7.453,7.432,0.5,15.979,0.5 M15.979,0c-8.822,0-16,7.178-16,16c0,8.822,7.178,16,16,16s16-7.178,16-16     C31.979,7.178,24.802,0,15.979,0L15.979,0z" fill="#CCCCCC"/></g><g><path d="M15.979,31.75c-8.685,0-15.75-7.065-15.75-15.75S7.295,0.25,15.979,0.25S31.729,7.315,31.729,16     S24.664,31.75,15.979,31.75z" fill="#E5E5E5"/><path d="M15.979,0.5c8.547,0,15.5,6.953,15.5,15.5c0,8.547-6.953,15.5-15.5,15.5c-8.547,0-15.5-6.953-15.5-15.5     C0.479,7.453,7.432,0.5,15.979,0.5 M15.979,0c-8.822,0-16,7.178-16,16c0,8.822,7.178,16,16,16s16-7.178,16-16     C31.979,7.178,24.802,0,15.979,0L15.979,0z" fill="#CCCCCC"/></g></g><g><path d="M15.979,30.625C7.915,30.625,1.354,24.064,1.354,16c0-8.064,6.561-14.625,14.625-14.625    S30.604,7.936,30.604,16C30.604,24.064,24.043,30.625,15.979,30.625z" fill="#FFFFFF"/><path d="M15.979,30.625C7.915,30.625,1.354,24.064,1.354,16c0-8.064,6.561-14.625,14.625-14.625    S30.604,7.936,30.604,16C30.604,24.064,24.043,30.625,15.979,30.625z" fill="#FFFFFF"/></g><g><g opacity="0.4"><path d="M15.979,29.754c-7.584,0-13.754-6.17-13.754-13.754c0-7.584,6.17-13.754,13.754-13.754     S29.733,8.416,29.733,16C29.733,23.584,23.563,29.754,15.979,29.754z" fill="#FFFFFF"/></g><path d="M15.979,29.754c-7.584,0-13.754-6.17-13.754-13.754c0-7.584,6.17-13.754,13.754-13.754    S29.733,8.416,29.733,16C29.733,23.584,23.563,29.754,15.979,29.754z" fill="#FFFFFF"/></g><g><g opacity="0.4"><path d="M15.979,29.754c-7.584,0-13.754-6.17-13.754-13.754c0-7.584,6.17-13.754,13.754-13.754     S29.733,8.416,29.733,16C29.733,23.584,23.563,29.754,15.979,29.754z" fill="#FFFFFF"/></g><path d="M15.979,29.754c-7.584,0-13.754-6.17-13.754-13.754c0-7.584,6.17-13.754,13.754-13.754    S29.733,8.416,29.733,16C29.733,23.584,23.563,29.754,15.979,29.754z" fill="#333333"/></g><g><g opacity="0.4"><path d="M15.979,28.577C9.044,28.577,3.403,22.935,3.403,16c0-6.935,5.642-12.577,12.577-12.577     S28.556,9.065,28.556,16C28.556,22.935,22.914,28.577,15.979,28.577z" fill="#FFFFFF"/></g><path d="M15.979,28.577C9.044,28.577,3.403,22.935,3.403,16c0-6.935,5.642-12.577,12.577-12.577    S28.556,9.065,28.556,16C28.556,22.935,22.914,28.577,15.979,28.577z" fill="#FFFFFF"/></g></g><path clip-rule="evenodd" d="M16.1,6.995c-4.017,0-7.192,3.368-7.192,7.432  c0,4.246,5.584,10.578,7.192,10.578c1.409,0,6.993-6.332,6.993-10.578C23.092,10.363,19.917,6.995,16.1,6.995z M16.123,18.289  c-2.508,0-4.44-1.913-4.44-4.152c0-1.037,0.351-1.962,0.927-2.702c0.008,0.92,0.763,1.664,1.695,1.664  c0.937,0,1.696-0.752,1.696-1.679c0-0.681-0.412-1.265-1.001-1.528c0.36-0.089,0.731-0.151,1.124-0.151  c2.261,0,4.194,1.913,4.194,4.396C20.317,16.376,18.384,18.289,16.123,18.289z" fill="#333333" fill-rule="evenodd"/></svg>